<svg width="32" height="32" viewBox="0 0 32 32" fill="none" xmlns="http://www.w3.org/2000/svg">
<g clip-path="url(#clip0_2412_1598)">
<path d="M16 9C15.7348 9 15.4804 9.10536 15.2929 9.2929C15.1054 9.48043 15 9.73478 15 10V16C15 16.0091 15.0011 16.0179 15.0013 16.0269C15.002 16.0471 15.0026 16.0671 15.0044 16.0872C15.0057 16.1027 15.0078 16.1179 15.0099 16.1332C15.0121 16.1493 15.0143 16.1655 15.0173 16.1815C15.0205 16.1993 15.0245 16.2167 15.0287 16.2341C15.032 16.2476 15.0353 16.2611 15.0391 16.2745C15.0442 16.2927 15.0501 16.3106 15.0563 16.3285C15.0607 16.3411 15.0652 16.3537 15.0701 16.3662C15.0769 16.3833 15.0842 16.4 15.0918 16.4166C15.0978 16.4299 15.1041 16.4431 15.1108 16.4561C15.1183 16.4708 15.1263 16.4853 15.1346 16.4996C15.1429 16.514 15.1514 16.5282 15.1605 16.5421C15.1683 16.5544 15.1766 16.5663 15.185 16.5781C15.1956 16.5931 15.2065 16.6079 15.218 16.6223C15.2263 16.6327 15.2349 16.6428 15.2435 16.6528C15.256 16.6672 15.2687 16.6814 15.282 16.6952C15.2916 16.705 15.3014 16.7144 15.3113 16.7238C15.3244 16.7363 15.3376 16.7486 15.3516 16.7605C15.3638 16.7709 15.3765 16.7808 15.3893 16.7906C15.4017 16.8002 15.414 16.8097 15.4269 16.8188C15.4432 16.8302 15.4601 16.8407 15.477 16.8512C15.4849 16.856 15.492 16.8614 15.5 16.866L20.6962 19.866C20.9258 19.9986 21.1988 20.0346 21.455 19.9659C21.7112 19.8973 21.9296 19.7297 22.0622 19.5C22.1948 19.2703 22.2307 18.9974 22.1621 18.7412C22.0934 18.485 21.9258 18.2666 21.6962 18.134L17 15.4226V10C17 9.73478 16.8946 9.48043 16.7071 9.2929C16.5196 9.10536 16.2652 9 16 9Z" fill="#8D0EBA"/>
<path d="M28.021 6.46473C27.8897 6.46473 27.7596 6.49059 27.6383 6.54084C27.517 6.5911 27.4067 6.66476 27.3139 6.75761C27.221 6.85047 27.1473 6.96071 27.0971 7.08204C27.0468 7.20337 27.021 7.33341 27.021 7.46473V10.0505L24.4854 7.51496C22.8075 5.83864 20.6703 4.69741 18.3439 4.23551C16.0175 3.77362 13.6064 4.0118 11.4154 4.91996C9.22437 5.82812 7.35177 7.36547 6.03431 9.3377C4.71685 11.3099 4.01367 13.6285 4.01367 16.0003C4.01367 18.372 4.71685 20.6906 6.03431 22.6628C7.35177 24.635 9.22437 26.1724 11.4154 27.0805C13.6064 27.9887 16.0175 28.2269 18.3439 27.765C20.6703 27.3031 22.8075 26.1619 24.4854 24.4855C24.6729 24.298 24.7783 24.0437 24.7783 23.7785C24.7783 23.5132 24.6729 23.2589 24.4854 23.0714C24.3925 22.9785 24.2823 22.9048 24.161 22.8546C24.0397 22.8043 23.9096 22.7785 23.7783 22.7785C23.5131 22.7785 23.2587 22.8838 23.0712 23.0714C21.6727 24.4699 19.8908 25.4223 17.951 25.8081C16.0112 26.194 14.0006 25.9959 12.1733 25.239C10.346 24.4822 8.78426 23.2004 7.68545 21.556C6.58664 19.9115 6.00015 17.9781 6.00015 16.0003C6.00015 14.0224 6.58664 12.089 7.68545 10.4446C8.78426 8.80006 10.346 7.51833 12.1733 6.76145C14.0006 6.00457 16.0112 5.80654 17.951 6.19238C19.8908 6.57823 21.6727 7.53063 23.0712 8.92915L25.6068 11.4647H23.021C22.7558 11.4647 22.5014 11.5701 22.3139 11.7576C22.1263 11.9452 22.021 12.1995 22.021 12.4647C22.021 12.7299 22.1263 12.9843 22.3139 13.1718C22.5014 13.3594 22.7558 13.4647 23.021 13.4647H28.0207C28.0538 13.4647 28.0868 13.463 28.1198 13.4597C28.134 13.4584 28.1478 13.4557 28.1618 13.4537C28.1801 13.4511 28.1984 13.4489 28.2165 13.4453C28.233 13.4421 28.2489 13.4375 28.2651 13.4335C28.2805 13.4296 28.2961 13.4262 28.3113 13.4216C28.3274 13.4167 28.3428 13.4107 28.3585 13.4051C28.3736 13.3997 28.3888 13.3947 28.4037 13.3885C28.4184 13.3824 28.4325 13.3753 28.4469 13.3685C28.4621 13.3613 28.4774 13.3546 28.4923 13.3466C28.5063 13.3391 28.5196 13.3306 28.5332 13.3224C28.5475 13.3139 28.5621 13.3058 28.5761 13.2964C28.5914 13.2862 28.6058 13.2748 28.6204 13.2638C28.6318 13.2552 28.6436 13.2473 28.6547 13.2382C28.7057 13.1963 28.7525 13.1495 28.7944 13.0984C28.8034 13.0875 28.8111 13.076 28.8195 13.0648C28.8307 13.0499 28.8423 13.0353 28.8527 13.0198C28.8619 13.006 28.8699 12.9916 28.8783 12.9775C28.8866 12.9637 28.8953 12.9502 28.9029 12.936C28.9107 12.9214 28.9173 12.9064 28.9244 12.8915C28.9313 12.8768 28.9386 12.8623 28.9449 12.8472C28.9509 12.8328 28.9556 12.8181 28.9609 12.8035C28.9667 12.7873 28.9729 12.7714 28.9779 12.7549C28.9823 12.7402 28.9856 12.7252 28.9893 12.7103C28.9936 12.6936 28.9982 12.6771 29.0016 12.6601C29.0051 12.6429 29.007 12.6255 29.0096 12.6081C29.0117 12.5932 29.0145 12.5785 29.016 12.5633C29.0192 12.5305 29.021 12.4976 29.021 12.4647V7.46473C29.021 7.33341 28.9951 7.20337 28.9449 7.08204C28.8946 6.96071 28.821 6.85047 28.7281 6.75761C28.6352 6.66476 28.525 6.5911 28.4037 6.54084C28.2823 6.49059 28.1523 6.46473 28.021 6.46473Z" fill="#8D0EBA"/>
</g>
<defs>
<clipPath id="clip0_2412_1598">
<rect width="32" height="32" fill="white"/>
</clipPath>
</defs>
</svg>
