<svg width="24" height="24" viewBox="0 0 24 24" fill="none" xmlns="http://www.w3.org/2000/svg">
<g clip-path="url(#clip0_2412_1655)">
<rect width="24" height="24" fill="white"/>
<path d="M12.7392 17.8812L17.4675 20.8769C18.0719 21.2598 18.8223 20.6903 18.643 19.9847L17.2769 14.6108C17.2384 14.4611 17.243 14.3036 17.29 14.1564C17.3371 14.0092 17.4247 13.8783 17.5429 13.7787L21.783 10.2496C22.3401 9.78588 22.0525 8.86126 21.3367 8.81481L15.7995 8.45544C15.6504 8.44479 15.5073 8.39198 15.387 8.30317C15.2667 8.21437 15.1741 8.09321 15.12 7.95382L13.0549 2.75323C12.9987 2.60528 12.8989 2.4779 12.7687 2.38802C12.6384 2.29814 12.4839 2.25 12.3257 2.25C12.1674 2.25 12.0129 2.29814 11.8827 2.38802C11.7525 2.4779 11.6527 2.60528 11.5965 2.75323L9.53136 7.95382C9.47725 8.09321 9.38466 8.21437 9.26436 8.30317C9.14406 8.39198 9.00101 8.44479 8.85187 8.45544L3.31462 8.81481C2.59884 8.86126 2.31128 9.78588 2.86841 10.2496L7.10847 13.7787C7.22663 13.8783 7.31428 14.0092 7.36134 14.1564C7.4084 14.3036 7.41296 14.4611 7.37449 14.6108L6.10757 19.5945C5.89235 20.4412 6.79284 21.1246 7.51811 20.6651L11.9122 17.8812C12.0357 17.8025 12.1792 17.7607 12.3257 17.7607C12.4722 17.7607 12.6156 17.8025 12.7392 17.8812Z" fill="#FFBA53"/>
</g>
<defs>
<clipPath id="clip0_2412_1655">
<rect width="24" height="24" fill="white"/>
</clipPath>
</defs>
</svg>
