<svg width="32" height="32" viewBox="0 0 32 32" fill="none" xmlns="http://www.w3.org/2000/svg">
<g clip-path="url(#clip0_2412_1578)">
<path d="M28.7409 8.85259C28.7376 8.84648 28.7351 8.84026 28.7317 8.83421C28.7302 8.83165 28.7284 8.82933 28.7269 8.82677C28.5479 8.51965 28.2903 8.26585 27.9805 8.09154L16.9806 1.90404C16.6809 1.73675 16.3433 1.64893 16.0001 1.64893C15.6568 1.64893 15.3193 1.73675 15.0195 1.90404L4.0194 8.0916C3.70846 8.26673 3.45005 8.5219 3.27103 8.83062C3.2691 8.83397 3.26678 8.83702 3.26489 8.84044C3.26184 8.84587 3.25964 8.85155 3.25671 8.85704C3.08875 9.15553 3.00035 9.4922 3 9.8347V22.165C3.00028 22.5199 3.09482 22.8682 3.27396 23.1745C3.4531 23.4808 3.7104 23.734 4.01953 23.9082L15.0197 30.0958C15.2967 30.2507 15.6068 30.3373 15.924 30.3484C15.9467 30.3502 15.9694 30.3523 15.9926 30.3525H16.0016C16.0331 30.3525 16.0641 30.3507 16.0949 30.3478C16.4057 30.334 16.709 30.2476 16.9805 30.0957L27.9805 23.9082C28.2896 23.734 28.5469 23.4808 28.7261 23.1746C28.9052 22.8683 28.9998 22.5199 29 22.165V9.8347C28.9997 9.49048 28.9104 9.15217 28.7409 8.85259ZM16 3.6472L25.968 9.2542L22.1404 11.4287L12.055 5.86626L16 3.6472ZM16.1138 14.8525L6.04736 9.24559L10.0048 7.01952L20.1005 12.5876L16.1138 14.8525ZM17.0152 27.7815L17.1136 16.5848L21.1278 14.3042V19.0637C21.1278 19.3289 21.2332 19.5833 21.4207 19.7708C21.6082 19.9583 21.8626 20.0637 22.1278 20.0637C22.393 20.0637 22.6474 19.9583 22.8349 19.7708C23.0224 19.5833 23.1278 19.3289 23.1278 19.0637V13.168L27 10.9681V22.165L17.0152 27.7815Z" fill="#165DF5"/>
</g>
<defs>
<clipPath id="clip0_2412_1578">
<rect width="32" height="32" fill="white"/>
</clipPath>
</defs>
</svg>
